<svg xmlns="http://www.w3.org/2000/svg" width="12" height="12" viewBox="0 0 12 12"><g><g><g><g><path    d="M3.073 2.698l-.059.004a.443.443 0 0 0-.377.442c0 .247.195.446.436.446h3.14l.058-.004a.443.443 0 0 0 .377-.442.441.441 0 0 0-.436-.446zM9.295 5.14l-.059.004a.443.443 0 0 0-.377.442c0 .246.195.446.436.446h.182l.059-.004a.443.443 0 0 0 .377-.442.441.441 0 0 0-.436-.446zm1.833 1.637H9.21l-.088-.004a1.145 1.145 0 0 1-1.041-1.15c0-.638.506-1.154 1.13-1.155h1.917zM8.639.895c1.386.068 2.489 1.238 2.489 2.671v.01H9.21l-.11.003c-1.054.058-1.891.95-1.891 2.043 0 1.13.896 2.045 2.001 2.046h1.918v.166c0 1.477-1.171 2.674-2.615 2.674H3.487c-1.444 0-2.615-1.197-2.615-2.674V3.566C.872 2.09 2.043.892 3.487.892h5.026zM3.487 0C1.561 0 0 1.597 0 3.566v4.268C0 9.804 1.561 11.4 3.487 11.4h5.026C10.439 11.4 12 9.803 12 7.834V3.566C12 1.596 10.439 0 8.513 0z"/></g></g></g></g></svg>