<?xml version="1.0" encoding="UTF-8"?>
<svg id="svg8" version="1.1" viewBox="0 0 14.4 14.4" xmlns="http://www.w3.org/2000/svg"><style id="style839"/><g id="g6" transform="translate(0 -.00056251)"><g id="g4"><path id="path2" d="m5.028 13.517v-2.202c0-.562.484-1.017 1.08-1.017h2.178c.286 0 .56.107.763.298a.99.99 0 01.316.72v2.2a.852.852 0 00.27.625c.174.166.412.259.66.259h1.486a2.695 2.695 0 001.851-.72c.492-.462.768-1.09.768-1.744v-6.272c0-.529-.249-1.03-.679-1.37l-5.055-3.806a2.443 2.443 0 00-2.993.05l-4.94 3.758c-.45.329-.72.832-.733 1.37v6.265c0 1.364 1.173 2.47 2.62 2.47h1.452c.514 0 .932-.392.936-.877z"   /></g></g></svg>
