<svg xmlns="http://www.w3.org/2000/svg" width="12" height="12" viewBox="0 0 12 12"><g><g><g><g><path    d="M3.594 3.025c-.245.025-.43.213-.43.438 0 .223.185.412.43.436h1.829c.244-.024.428-.213.428-.436 0-.225-.184-.413-.428-.438zm-.006 2.538c-.244.024-.429.213-.429.437s.185.412.429.437h4.807a.5.5 0 0 0 .461-.203.41.41 0 0 0 0-.468.5.5 0 0 0-.46-.203zm0 2.543c-.263 0-.476.194-.476.434s.213.435.476.435h4.807c.263 0 .476-.195.476-.435s-.213-.434-.476-.434zm7.443-4.98v5.749c0 1.493-.825 2.25-2.462 2.25H3.425c-1.637 0-2.467-.757-2.467-2.25v-5.75c0-1.493.83-2.25 2.467-2.25H8.57c1.637 0 2.462.757 2.462 2.25zM3.425 0C1.503 0 .273.938.04 2.55c-.027.183-.04.375-.04.575v5.75c0 1.658.919 2.748 2.5 3.043l.145.025c.245.038.506.057.78.057h5.15C10.723 12 12 10.829 12 8.875V3.079C11.98 1.152 10.706 0 8.575 0z"/></g></g></g></g></svg>