<svg xmlns="http://www.w3.org/2000/svg" width="15" height="15" viewBox="0 0 15 15"><g><g><path fill="#303475" d="M7.012 6.183c-.223.027-1.47.25-1.47 1.683 0 2.09 2.273 1.471 2.273 2.866 0 .698-.475.715-.571.715-.088 0-.667.044-.667-1.025H5.335c0 1.81 1.379 1.954 1.584 1.981v.832h.658v-.832c.222-.027 1.478-.223 1.478-1.68 0-2.005-2.272-1.621-2.271-2.852 0-.705.359-.727.495-.727.174 0 .544.134.544.994h1.242c0-1.645-1.18-1.9-1.391-1.938v-.911h-.662zm3.068-2.069s4.32 2.068 4.32 6.857c0 1.59-.574 2.686-1.527 3.429H1.527C.574 13.657 0 12.562 0 10.971c0-4.79 4.32-6.857 4.32-6.857zM8.799.686H10.8l-.72 2.057H4.32L3.6.686h2.001A2.194 2.194 0 0 1 7.2 0c.637 0 1.204.268 1.599.686z"/></g></g></svg>