<svg xmlns="http://www.w3.org/2000/svg" width="10" height="12" viewBox="0 0 10 12"><g><g><g><g><path    d="M2.724 3.79l-.057.004a.431.431 0 0 0-.366.43c0 .24.19.435.423.435h4.12l.058-.004a.431.431 0 0 0 .366-.43.43.43 0 0 0-.423-.435zm6.029-1.235v8.444a.135.135 0 0 1-.038.094.128.128 0 0 1-.092.038.178.178 0 0 1-.075-.02L5.186 9.233a.825.825 0 0 0-.802-.001l-3.352 1.883c-.051.027-.124.01-.162-.045l-.023-.037c.007.01 0-.016 0-.043v-8.33c0-1.224.725-1.792 2.162-1.792H6.59c1.419 0 2.162.546 2.162 1.686zM3.009 0C1.145 0 0 .9 0 2.66V11c.003.169.042.328.116.471l.056.093.059.076a.967.967 0 0 0 1.2.243l3.353-1.884 3.368 1.88a.969.969 0 0 0 1.162-.172c.183-.187.286-.442.286-.707V2.555C9.6.86 8.429 0 6.591 0z"/></g></g></g></g></svg>