<svg xmlns="http://www.w3.org/2000/svg" width="12" height="12" viewBox="0 0 12 12"><g><g><path    d="M6.817 6c0 .603-.5 1.092-1.115 1.092A1.104 1.104 0 0 1 4.587 6c0-.603.5-1.092 1.115-1.092.616 0 1.115.489 1.115 1.092zM3.7 6c0 1.083.897 1.96 2.002 1.96 1.105 0 2.001-.877 2.001-1.96s-.896-1.96-2.001-1.96S3.7 4.916 3.7 6zM6.07.869c.186 0 .364.073.493.204.13.13.2.307.194.489l.008.15c.027.232.096.433.206.614.21.35.554.605.958.708.403.102.831.044 1.19-.164l.062-.03.066-.027a.694.694 0 0 1 .805.308l.35.597.008.017.043.08a.664.664 0 0 1-.284.85l-.097.06a1.55 1.55 0 0 0-.475.503c-.209.35-.266.771-.159 1.166.098.36.325.67.637.878l.164.1a.66.66 0 0 1 .182.874l-.387.631-.043.067a.691.691 0 0 1-.83.217l-.19-.095a1.643 1.643 0 0 0-.628-.145 1.59 1.59 0 0 0-1.126.45c-.296.29-.462.684-.46 1.094l-.003.066c-.028.33-.326.6-.684.6h-.741a.683.683 0 0 1-.684-.6l-.012-.212a1.555 1.555 0 0 0-1.155-1.326 1.591 1.591 0 0 0-1.192.157l-.065.031a.692.692 0 0 1-.865-.296l-.378-.638-.034-.064a.658.658 0 0 1 .284-.848l.093-.057A1.54 1.54 0 0 0 2.015 6c0-.514-.262-.992-.693-1.277l-.156-.097a.662.662 0 0 1-.187-.88l.39-.626a.698.698 0 0 1 .942-.257l.116.06c.215.097.427.143.641.145.832 0 1.512-.625 1.574-1.423l.008-.183a.655.655 0 0 1 .195-.397A.69.69 0 0 1 5.33.87h.74zM5.329 0C4.91 0 4.51.163 4.217.453c-.261.257-.42.595-.452.956l-.005.116a.683.683 0 0 1-.687.675.645.645 0 0 1-.256-.057l-.08-.042a1.588 1.588 0 0 0-2.131.576l-.39.627a1.525 1.525 0 0 0 .459 2.044l.093.059c.229.13.36.352.36.593a.67.67 0 0 1-.296.554l-.063.038A1.516 1.516 0 0 0 .15 8.571l.051.096.382.646c.2.352.54.617.943.729.357.1.738.072 1.076-.077l.106-.052a.71.71 0 0 1 .54-.08.675.675 0 0 1 .501.564l.005.088C3.755 11.31 4.46 12 5.33 12h.74c.822 0 1.503-.618 1.57-1.415l.004-.103a.677.677 0 0 1 .686-.692.712.712 0 0 1 .261.06l.082.041c.689.39 1.592.19 2.057-.466l.06-.09.395-.647c.213-.358.27-.779.163-1.174a1.537 1.537 0 0 0-.616-.864l-.1-.062a.685.685 0 0 1-.336-.417.656.656 0 0 1 .07-.509.661.661 0 0 1 .198-.214l.154-.095c.626-.415.86-1.234.53-1.922l-.033-.067a.431.431 0 0 0-.026-.05l-.368-.626a1.591 1.591 0 0 0-2.032-.627l-.099.05a.712.712 0 0 1-.538.082.68.68 0 0 1-.417-.309.62.62 0 0 1-.086-.249l-.005-.088a1.496 1.496 0 0 0-.444-1.08A1.59 1.59 0 0 0 6.069 0z"/></g></g></svg>