<svg xmlns="http://www.w3.org/2000/svg" width="12" height="10" viewBox="0 0 12 10"><g><g><g><g><path    d="M3.618 0L3.48.004c-.644.033-1.254.299-1.712.749a2.538 2.538 0 0 0-.763 1.816v.574l.004.056a.413.413 0 0 0 .411.352c.23 0 .415-.183.415-.408v-.575l.004-.116c.027-.423.21-.822.517-1.124A1.8 1.8 0 0 1 3.618.815h.444L4.118.81a.41.41 0 0 0 .36-.404A.411.411 0 0 0 4.061 0zm4.356 0l-.057.004a.41.41 0 0 0-.359.403c0 .225.186.408.416.408h.423l.118.003c.432.027.84.207 1.148.509.335.329.523.775.522 1.24v.576l.004.056a.413.413 0 0 0 .411.352c.23 0 .416-.183.416-.408v-.575l-.004-.136A2.54 2.54 0 0 0 10.25.751 2.64 2.64 0 0 0 8.396 0zM.415 4.932l-.056.004A.41.41 0 0 0 0 5.339c0 .225.186.408.415.408h.59V7.25l.003.136a2.54 2.54 0 0 0 .762 1.681 2.64 2.64 0 0 0 1.854.751h.438l.056-.004a.41.41 0 0 0 .36-.403.411.411 0 0 0-.416-.407h-.439L3.505 9a1.799 1.799 0 0 1-1.147-.509 1.732 1.732 0 0 1-.523-1.24V5.746h8.35V7.25l-.004.116a1.734 1.734 0 0 1-.518 1.125 1.8 1.8 0 0 1-1.265.513h-.424l-.057.003a.41.41 0 0 0-.359.404c0 .225.186.407.416.407h.423l.139-.003a2.637 2.637 0 0 0 1.714-.748 2.538 2.538 0 0 0 .766-1.818V5.746h.569l.056-.003A.41.41 0 0 0 12 5.339a.411.411 0 0 0-.415-.407z"/></g></g></g></g></svg>