<svg xmlns="http://www.w3.org/2000/svg" width="16" height="16" viewBox="0 0 16 16"><g><g><path fill="#ffcf3d" d="M8.666 14v2H7.334v-2zm4.048-2.229l1.413 1.414-.942.942-1.415-1.414.943-.943zm-8.485.943l-1.414 1.413-.942-.942 1.414-1.415zM16 7.334v1.332h-2V7.334zm-14 0v1.332H0V7.334zM4.666 8A3.324 3.324 0 0 0 8 11.334 3.324 3.324 0 0 0 11.334 8 3.324 3.324 0 0 0 8 4.666 3.324 3.324 0 0 0 4.666 8zm8 0A4.677 4.677 0 0 1 8 12.666 4.677 4.677 0 0 1 3.334 8 4.677 4.677 0 0 1 8 3.334 4.677 4.677 0 0 1 12.666 8zm1.46-5.185L12.714 4.23l-.942-.944 1.414-1.413zm-9.896.472l-.944.942-1.413-1.414.942-.942zM8.666 0v2H7.334V0z"/></g></g></svg>