<svg xmlns="http://www.w3.org/2000/svg" width="29" height="16.111" viewBox="0 0 29 16.111">
  <g id="Groupe_53" data-name="Groupe 53" transform="translate(-310 -137)">
    <g id="arrow_down_bold" transform="translate(322.889 153.111) rotate(-90)">
      <path id="Tracé_21" data-name="Tracé 21" d="M0,16.111V0H16.111V16.111Z" fill="rgba(0,0,0,0)"/>
      <g id="Groupe_5" data-name="Groupe 5" transform="translate(3.356 5.373)">
        <g id="Groupe_4" data-name="Groupe 4">
          <path id="Tracé_22" data-name="Tracé 22" d="M4.225,5.17.2,1.143A.669.669,0,0,1,1.143.2L4.7,3.748,8.253.2A.667.667,0,0,1,9.2.2a.641.641,0,0,1,.2.469.687.687,0,0,1-.195.477L5.177,5.17A.674.674,0,0,1,4.225,5.17Z" stroke="#000" stroke-miterlimit="5" stroke-width="0.42"/>
        </g>
        <path id="Tracé_23" data-name="Tracé 23" d="M4.225,5.17.2,1.143A.669.669,0,0,1,1.143.2L4.7,3.748,8.253.2A.667.667,0,0,1,9.2.2a.641.641,0,0,1,.2.469.687.687,0,0,1-.195.477L5.177,5.17A.674.674,0,0,1,4.225,5.17Z" fill="#303475"/>
        <path id="Tracé_24" data-name="Tracé 24" d="M4.225,5.17.2,1.143A.669.669,0,0,1,1.143.2L4.7,3.748,8.253.2A.667.667,0,0,1,9.2.2a.641.641,0,0,1,.2.469.687.687,0,0,1-.195.477L5.177,5.17A.674.674,0,0,1,4.225,5.17Z"/>
        <path id="Tracé_25" data-name="Tracé 25" d="M4.225,5.17.2,1.143A.669.669,0,0,1,1.143.2L4.7,3.748,8.253.2A.667.667,0,0,1,9.2.2a.641.641,0,0,1,.2.469.687.687,0,0,1-.195.477L5.177,5.17A.674.674,0,0,1,4.225,5.17Z" fill="#303475" stroke="#303475" stroke-miterlimit="5" stroke-width="0.42"/>
      </g>
    </g>
    <g id="arrow_down_bold-2" data-name="arrow_down_bold" transform="translate(316.444 153.111) rotate(-90)">
      <path id="Tracé_21-2" data-name="Tracé 21" d="M0,16.111V0H16.111V16.111Z" fill="rgba(0,0,0,0)"/>
      <g id="Groupe_5-2" data-name="Groupe 5" transform="translate(3.356 5.373)">
        <g id="Groupe_4-2" data-name="Groupe 4">
          <path id="Tracé_22-2" data-name="Tracé 22" d="M4.225,5.17.2,1.143A.669.669,0,0,1,1.143.2L4.7,3.748,8.253.2A.667.667,0,0,1,9.2.2a.641.641,0,0,1,.2.469.687.687,0,0,1-.195.477L5.177,5.17A.674.674,0,0,1,4.225,5.17Z" stroke="#000" stroke-miterlimit="5" stroke-width="0.42"/>
        </g>
        <path id="Tracé_23-2" data-name="Tracé 23" d="M4.225,5.17.2,1.143A.669.669,0,0,1,1.143.2L4.7,3.748,8.253.2A.667.667,0,0,1,9.2.2a.641.641,0,0,1,.2.469.687.687,0,0,1-.195.477L5.177,5.17A.674.674,0,0,1,4.225,5.17Z" fill="#303475"/>
        <path id="Tracé_24-2" data-name="Tracé 24" d="M4.225,5.17.2,1.143A.669.669,0,0,1,1.143.2L4.7,3.748,8.253.2A.667.667,0,0,1,9.2.2a.641.641,0,0,1,.2.469.687.687,0,0,1-.195.477L5.177,5.17A.674.674,0,0,1,4.225,5.17Z"/>
        <path id="Tracé_25-2" data-name="Tracé 25" d="M4.225,5.17.2,1.143A.669.669,0,0,1,1.143.2L4.7,3.748,8.253.2A.667.667,0,0,1,9.2.2a.641.641,0,0,1,.2.469.687.687,0,0,1-.195.477L5.177,5.17A.674.674,0,0,1,4.225,5.17Z" fill="#303475" stroke="#303475" stroke-miterlimit="5" stroke-width="0.42"/>
      </g>
    </g>
    <g id="arrow_down_bold-3" data-name="arrow_down_bold" transform="translate(310 153.111) rotate(-90)">
      <path id="Tracé_21-3" data-name="Tracé 21" d="M0,16.111V0H16.111V16.111Z" fill="rgba(0,0,0,0)"/>
      <g id="Groupe_5-3" data-name="Groupe 5" transform="translate(3.356 5.373)">
        <g id="Groupe_4-3" data-name="Groupe 4">
          <path id="Tracé_22-3" data-name="Tracé 22" d="M4.225,5.17.2,1.143A.669.669,0,0,1,1.143.2L4.7,3.748,8.253.2A.667.667,0,0,1,9.2.2a.641.641,0,0,1,.2.469.687.687,0,0,1-.195.477L5.177,5.17A.674.674,0,0,1,4.225,5.17Z" stroke="#000" stroke-miterlimit="5" stroke-width="0.42"/>
        </g>
        <path id="Tracé_23-3" data-name="Tracé 23" d="M4.225,5.17.2,1.143A.669.669,0,0,1,1.143.2L4.7,3.748,8.253.2A.667.667,0,0,1,9.2.2a.641.641,0,0,1,.2.469.687.687,0,0,1-.195.477L5.177,5.17A.674.674,0,0,1,4.225,5.17Z" fill="#303475"/>
        <path id="Tracé_24-3" data-name="Tracé 24" d="M4.225,5.17.2,1.143A.669.669,0,0,1,1.143.2L4.7,3.748,8.253.2A.667.667,0,0,1,9.2.2a.641.641,0,0,1,.2.469.687.687,0,0,1-.195.477L5.177,5.17A.674.674,0,0,1,4.225,5.17Z"/>
        <path id="Tracé_25-3" data-name="Tracé 25" d="M4.225,5.17.2,1.143A.669.669,0,0,1,1.143.2L4.7,3.748,8.253.2A.667.667,0,0,1,9.2.2a.641.641,0,0,1,.2.469.687.687,0,0,1-.195.477L5.177,5.17A.674.674,0,0,1,4.225,5.17Z" fill="#303475" stroke="#303475" stroke-miterlimit="5" stroke-width="0.42"/>
      </g>
    </g>
  </g>
</svg>
